<svg xmlns="http://www.w3.org/2000/svg" width="26" height="26" viewBox="0 0 26 26" fill="none">
  <g clip-path="url(#clip0_3_234)">
    <path d="M11.4551 8.92001C11.4983 9.01106 11.5467 9.09954 11.6001 9.18502C11.6481 9.25702 11.7201 9.32902 11.7691 9.40202C11.8439 9.48026 11.9244 9.55279 12.0101 9.61902C12.0958 9.68591 12.1941 9.73487 12.2991 9.76302C12.3983 9.81064 12.5036 9.84429 12.6121 9.86302C12.7153 9.88207 12.8202 9.89012 12.9251 9.88702C13.03 9.89101 13.135 9.88296 13.2381 9.86302C13.3313 9.8445 13.4208 9.81072 13.5031 9.76302H13.5271C13.6284 9.71578 13.7252 9.65921 13.8161 9.59402C13.8943 9.53658 13.9669 9.47196 14.0331 9.40102L14.0571 9.37702C14.1208 9.31075 14.1774 9.23803 14.2261 9.16002C14.2802 9.08755 14.3209 9.00591 14.3461 8.91902C14.3461 8.89502 14.3461 8.89502 14.3701 8.87102C14.4144 8.7705 14.4479 8.66558 14.4701 8.55802C14.5022 8.35058 14.5022 8.13945 14.4701 7.93202C14.4445 7.82537 14.411 7.72076 14.3701 7.61902C14.3024 7.45749 14.2043 7.31049 14.0811 7.18602L14.0331 7.13802C13.9576 7.06786 13.877 7.00335 13.7921 6.94502C13.6921 6.89702 13.6231 6.84502 13.5271 6.80102C13.4348 6.75691 13.3379 6.72337 13.2381 6.70102C13.1349 6.68195 13.03 6.67391 12.9251 6.67702C12.8202 6.67303 12.7151 6.68108 12.6121 6.70102C12.5123 6.72336 12.4153 6.7569 12.3231 6.80102H12.2991C12.2081 6.8439 12.1196 6.89198 12.0341 6.94502C11.9491 7.00336 11.8686 7.06787 11.7931 7.13802C11.7221 7.20418 11.6575 7.27684 11.6001 7.35502C11.5467 7.4405 11.4983 7.52898 11.4551 7.62002C11.411 7.71228 11.3774 7.80923 11.3551 7.90902C11.336 8.01221 11.328 8.11713 11.3311 8.22202C11.3271 8.32692 11.3351 8.43195 11.3551 8.53502C11.3766 8.66613 11.4101 8.79499 11.4551 8.92001Z" fill="#7AB0C9"/>
    <path d="M14.7911 17.5921H14.2371V11.692C14.2376 11.6097 14.2218 11.528 14.1905 11.4519C14.1592 11.3757 14.1131 11.3064 14.0549 11.2482C13.9967 11.19 13.9274 11.1439 13.8513 11.1126C13.7751 11.0814 13.6934 11.0655 13.6111 11.0661H11.0821C10.9997 11.0655 10.9181 11.0814 10.8419 11.1126C10.7657 11.1439 10.6965 11.19 10.6382 11.2482C10.58 11.3064 10.5339 11.3757 10.5026 11.4519C10.4714 11.528 10.4555 11.6097 10.4561 11.692V12.992C10.4555 13.0744 10.4714 13.156 10.5026 13.2322C10.5339 13.3084 10.58 13.3776 10.6382 13.4359C10.6965 13.4941 10.7657 13.5402 10.8419 13.5715C10.9181 13.6028 10.9997 13.6186 11.0821 13.6181H11.5881V17.6181H11.0821C10.9997 17.6175 10.9181 17.6334 10.8419 17.6646C10.7657 17.6959 10.6965 17.742 10.6382 17.8002C10.58 17.8584 10.5339 17.9277 10.5026 18.0039C10.4714 18.08 10.4555 18.1617 10.4561 18.244V19.5441C10.4555 19.6264 10.4714 19.708 10.5026 19.7842C10.5339 19.8604 10.58 19.9296 10.6382 19.9879C10.6965 20.0461 10.7657 20.0922 10.8419 20.1235C10.9181 20.1548 10.9997 20.1706 11.0821 20.1701H14.7911C14.8734 20.1706 14.9551 20.1548 15.0312 20.1235C15.1074 20.0922 15.1767 20.0461 15.2349 19.9879C15.2931 19.9296 15.3392 19.8604 15.3705 19.7842C15.4018 19.708 15.4176 19.6264 15.4171 19.5441V18.244C15.4195 18.0749 15.3551 17.9116 15.238 17.7895C15.1208 17.6675 14.9602 17.5965 14.7911 17.5921Z" fill="#7AB0C9"/>
    <path d="M13 0C10.4288 0 7.91543 0.762437 5.77759 2.1909C3.63975 3.61935 1.97351 5.64968 0.989572 8.02512C0.0056327 10.4006 -0.251811 13.0144 0.249797 15.5362C0.751405 18.0579 1.98954 20.3743 3.80762 22.1924C5.6257 24.0105 7.94208 25.2486 10.4638 25.7502C12.9856 26.2518 15.5995 25.9944 17.9749 25.0104C20.3503 24.0265 22.3807 22.3603 23.8091 20.2224C25.2376 18.0846 26 15.5712 26 13C26 9.55219 24.6304 6.24558 22.1924 3.80761C19.7544 1.36964 16.4478 0 13 0ZM13 24.289C10.7673 24.289 8.58464 23.6269 6.72817 22.3865C4.87171 21.146 3.42477 19.3829 2.57033 17.3201C1.71589 15.2573 1.49233 12.9875 1.92792 10.7976C2.36351 8.60777 3.43868 6.59627 5.01748 5.01747C6.59627 3.43868 8.60778 2.3635 10.7976 1.92791C12.9875 1.49233 15.2573 1.71589 17.3201 2.57032C19.3829 3.42476 21.146 4.8717 22.3865 6.72817C23.6269 8.58463 24.289 10.7672 24.289 13C24.2861 15.9931 23.0958 18.8628 20.9793 20.9793C18.8629 23.0958 15.9931 24.2861 13 24.289Z" fill="#7AB0C9"/>
  </g>
  <defs>
    <clipPath id="clip0_3_234">
      <rect width="26" height="26" fill="white"/>
    </clipPath>
  </defs>
</svg>