<svg xmlns="http://www.w3.org/2000/svg" width="19" height="19" viewBox="0 0 19 19" fill="none">
  <g clip-path="url(#clip0_404_274)">
    <path d="M1.462 0.5H13.885C14.1401 0.5 14.3848 0.601353 14.5652 0.781763C14.7456 0.962173 14.847 1.20686 14.847 1.462V4.615H0.5V1.462C0.5 1.20686 0.601353 0.962173 0.781763 0.781763C0.962173 0.601353 1.20686 0.5 1.462 0.5Z" stroke="#B2D3D3"/>
    <path d="M1.5 1H1V1.5V3.61538V4.11538H1.5H13.8462H14.3462V3.61538V1.5V1H13.8462H1.5ZM1.46154 0.5H13.8846C14.4157 0.5 14.8462 0.930495 14.8462 1.46154V4.61538H0.5V1.46154C0.5 0.930495 0.930501 0.5 1.46154 0.5Z" fill="white" stroke="#B2D3D3"/>
    <path d="M1.462 4.15405H17.538C17.7931 4.15405 18.0378 4.25541 18.2182 4.43582C18.3986 4.61623 18.5 4.86091 18.5 5.11605V17.5391C18.5 17.6654 18.4751 17.7905 18.4268 17.9072C18.3784 18.0239 18.3076 18.13 18.2182 18.2193C18.1289 18.3086 18.0229 18.3795 17.9061 18.4278C17.7894 18.4762 17.6643 18.5011 17.538 18.5011H1.462C1.33567 18.5011 1.21057 18.4762 1.09386 18.4278C0.977143 18.3795 0.871093 18.3086 0.781763 18.2193C0.692434 18.13 0.621573 18.0239 0.573228 17.9072C0.524883 17.7905 0.5 17.6654 0.5 17.5391V5.11605C0.5 4.86091 0.601353 4.61623 0.781763 4.43582C0.962173 4.25541 1.20686 4.15405 1.462 4.15405Z" stroke="#B2D3D3"/>
    <path d="M1.5 4.65405H1V5.15405V17.5002V18.0002H1.5H17.5H18V17.5002V5.15405V4.65405H17.5H1.5ZM1.46154 4.15405H17.5385C18.0695 4.15405 18.5 4.58455 18.5 5.11559V17.5387C18.5 18.0697 18.0695 18.5002 17.5385 18.5002H1.46154C0.930495 18.5002 0.5 18.0697 0.5 17.5387V5.11559C0.5 4.58455 0.930495 4.15405 1.46154 4.15405Z" fill="white" stroke="#B2D3D3"/>
    <path d="M5.45508 9.13696H6.63708C7.46551 9.13696 8.13708 9.80854 8.13708 10.637V11.819C8.13708 12.6474 7.46551 13.319 6.63708 13.319H5.45508C4.62665 13.319 3.95508 12.6474 3.95508 11.819V10.637C3.95508 9.80854 4.62665 9.13696 5.45508 9.13696Z" stroke="#B2D3D3"/>
    <path d="M6.63708 9.38696H5.45508C4.76472 9.38696 4.20508 9.94661 4.20508 10.637V11.819C4.20508 12.5093 4.76472 13.069 5.45508 13.069H6.63708C7.32743 13.069 7.88708 12.5093 7.88708 11.819V10.637C7.88708 9.94661 7.32743 9.38696 6.63708 9.38696Z" stroke="#B2D3D3" stroke-width="1.5"/>
    <path d="M12.3638 9.13696H13.5458C14.3742 9.13696 15.0458 9.80854 15.0458 10.637V11.819C15.0458 12.6474 14.3742 13.319 13.5458 13.319H12.3638C11.5353 13.319 10.8638 12.6474 10.8638 11.819V10.637C10.8638 9.80854 11.5353 9.13696 12.3638 9.13696Z" stroke="#B2D3D3"/>
    <path d="M13.5458 9.38696H12.3638C11.6734 9.38696 11.1138 9.94661 11.1138 10.637V11.819C11.1138 12.5093 11.6734 13.069 12.3638 13.069H13.5458C14.2361 13.069 14.7958 12.5093 14.7958 11.819V10.637C14.7958 9.94661 14.2361 9.38696 13.5458 9.38696Z" stroke="#B2D3D3" stroke-width="1.5"/>
  </g>
  <defs>
    <clipPath id="clip0_404_274">
      <rect width="19" height="19" fill="white"/>
    </clipPath>
  </defs>
</svg>