<svg width="19" height="19" viewBox="0 0 19 19" fill="none" xmlns="http://www.w3.org/2000/svg">
<path d="M1.5 1.5V3.61538H13.8462V1.5H1.5ZM1.46154 0H13.8846C14.6918 0 15.3462 0.65435 15.3462 1.46154V5.11538H0V1.46154C0 0.65435 0.654361 0 1.46154 0Z" fill="#03DAC6"/>
<path d="M1.5 5.15405V17.5002H17.5V5.15405H1.5ZM1.46154 3.65405H17.5385C18.3456 3.65405 19 4.30841 19 5.11559V17.5387C19 18.3459 18.3456 19.0002 17.5385 19.0002H1.46154C0.65435 19.0002 0 18.3459 0 17.5387V5.11559C0 4.30841 0.65435 3.65405 1.46154 3.65405Z" fill="#03DAC6"/>
<path d="M6.63708 9.38702H5.45508C4.76472 9.38702 4.20508 9.94667 4.20508 10.637V11.819C4.20508 12.5094 4.76472 13.069 5.45508 13.069H6.63708C7.32743 13.069 7.88708 12.5094 7.88708 11.819V10.637C7.88708 9.94667 7.32743 9.38702 6.63708 9.38702Z" stroke="#03DAC6" stroke-width="1.5"/>
<path d="M13.5458 9.38702H12.3638C11.6734 9.38702 11.1138 9.94667 11.1138 10.637V11.819C11.1138 12.5094 11.6734 13.069 12.3638 13.069H13.5458C14.2361 13.069 14.7958 12.5094 14.7958 11.819V10.637C14.7958 9.94667 14.2361 9.38702 13.5458 9.38702Z" stroke="#03DAC6" stroke-width="1.5"/>
</svg>
