<svg xmlns="http://www.w3.org/2000/svg" width="18" height="18" viewBox="0 0 18 18" fill="none">
  <g clip-path="url(#clip0_5_246)">
    <mask id="mask0_5_246" style="mask-type:luminance" maskUnits="userSpaceOnUse" x="0" y="0" width="18" height="18">
      <path d="M18 0H0V18H18V0Z" fill="white"/>
    </mask>
    <g mask="url(#mask0_5_246)">
      <path d="M7.004 14.0089C8.64164 14.0152 10.2278 13.4369 11.477 12.3779L16.913 17.8139C17.0324 17.9331 17.1943 18.0001 17.363 18.0001C17.5317 18.0001 17.6936 17.9331 17.813 17.8139C17.9322 17.6945 17.9991 17.5327 17.9991 17.3639C17.9991 17.1952 17.9322 17.0334 17.813 16.9139L12.377 11.4779C13.3917 10.2535 13.9588 8.71967 13.9846 7.12958C14.0104 5.5395 13.4935 3.9881 12.5191 2.73128C11.5448 1.47446 10.1711 0.587287 8.62472 0.216104C7.07835 -0.155078 5.45165 0.0118991 4.01294 0.689492C2.57422 1.36709 1.40943 2.51482 0.710692 3.94338C0.011952 5.37195 -0.179 6.99601 0.169334 8.54768C0.517668 10.0994 1.38448 11.486 2.62679 12.4788C3.86911 13.4716 5.41271 14.0113 7.003 14.0089H7.004ZM7.004 1.27395C8.13749 1.27395 9.24552 1.61006 10.188 2.2398C11.1304 2.86953 11.865 3.76459 12.2988 4.81179C12.7325 5.85899 12.846 7.01131 12.6249 8.12301C12.4038 9.23472 11.8579 10.2559 11.0564 11.0574C10.2549 11.8589 9.23377 12.4047 8.12207 12.6258C7.01036 12.847 5.85805 12.7335 4.81085 12.2997C3.76364 11.8659 2.86858 11.1314 2.23885 10.1889C1.60912 9.24646 1.273 8.13843 1.273 7.00495C1.27459 5.48548 1.8789 4.0287 2.95333 2.95427C4.02776 1.87985 5.48454 1.27554 7.004 1.27395Z" fill="#BBBBBB"/>
    </g>
  </g>
  <defs>
    <clipPath id="clip0_5_246">
      <rect width="18" height="18" fill="white"/>
    </clipPath>
  </defs>
</svg>